<?xml version="1.0" encoding="utf-8"?>
<!-- Generator: Adobe Illustrator 25.0.1, SVG Export Plug-In . SVG Version: 6.00 Build 0)  -->
<svg version="1.0" id="Слой_1" xmlns="http://www.w3.org/2000/svg" xmlns:xlink="http://www.w3.org/1999/xlink" x="0px" y="0px"
	 viewBox="0 0 1287.1 984.9" style="enable-background:new 0 0 1287.1 984.9;" xml:space="preserve">
<style type="text/css">
	.st0{fill:#F1F1F1;}
	.st1{fill:#C0C0C0;}
	.st2{fill:#E1E1E1;}
	.st3{fill:#5D9F64;}
	.st4{fill:#ACCC70;}
</style>
<g>
	<path class="st0" d="M1001.5,171v642.7c0,1.9-0.1,3.6-0.4,5.3c-1.7,16.7-12.5,30.7-27.1,37.3c-2.7,1.1-5.6,1.9-8,2.4
		c-1.3,0.3-2.4,0.6-3.4,0.7c-4.5,0.7-7.3,0.7-7.3,0.7h-623c-0.7,0-1.6,0-2.3-0.1h-1.3c-2-0.1-3.9-0.4-5.7-0.9
		c-1.6-0.3-3-0.6-4.5-1.1c-1.3-0.3-2.7-0.9-4-1.3c-0.1,0-0.3-0.1-0.4-0.1c-2.3-1-4.5-2.2-6.6-3.6c-2-1.3-3.9-2.7-5.7-4.5v-0.1h-0.1
		c-0.1-0.1-0.3-0.3-0.3-0.3c-9.5-8.5-15.4-20.8-15.4-34.5V171c0-25.7,20.8-46.5,46.4-46.5h623c21.1,0,39.1,14.4,44.5,33.9
		C1000.9,162.4,1001.5,166.6,1001.5,171z"/>
	<polygon class="st1" points="380.6,631.6 285.7,723.3 285.7,631.6 	"/>
	<polygon class="st2" points="750.1,370.3 285.7,370.3 285.7,631.6 388.3,631.6 514.3,502.3 651.2,502.3 784.2,371.1 	"/>
	<path class="st3" d="M1001.5,171v293.4L779.9,633H509.1L301.5,848.5h-0.1c-0.1-0.1-0.3-0.3-0.3-0.3c-9.5-8.5-15.4-20.8-15.4-34.5
		v-90.5l94.9-91.8l133.7-129.2h137l348.3-343.8C1000.9,162.4,1001.5,166.6,1001.5,171z"/>
	<path class="st4" d="M1001.5,464.4v349.4c0,1.9-0.1,3.6-0.4,5.3c-1.6,22.4-15.1,32.6-27.1,37.3c-2.7,1.1-5.6,1.9-8,2.4
		c-1.3,0.3-2.4,0.6-3.4,0.7c-4.5,0.7-7.3,0.7-7.3,0.7L330,860.1h-1.3c-2-0.1-3.9-0.4-5.7-0.9c-1.6-0.3-3-0.6-4.5-1.1
		c-1.3-0.3-2.7-0.9-4-1.3c-0.1,0-0.3-0.1-0.4-0.1c-6.9-2.9-11.1-6.7-12.3-8c0,0-0.1,0-0.1-0.1c-0.1-0.1-0.3-0.3-0.3-0.3l208.1-215.2
		h270.8L983.8,474L1001.5,464.4z"/>
</g>
</svg>
