<?xml version="1.0" encoding="utf-8"?>
<!-- Generator: Adobe Illustrator 25.4.1, SVG Export Plug-In . SVG Version: 6.00 Build 0)  -->
<svg version="1.0" id="katman_1" xmlns="http://www.w3.org/2000/svg" xmlns:xlink="http://www.w3.org/1999/xlink" x="0px" y="0px"
	 viewBox="0 0 1500 1200" style="enable-background:new 0 0 1500 1200;" xml:space="preserve">
<style type="text/css">
	.st0{fill:none;}
	.st1{fill:#EA4335;}
	.st2{fill:#FBBC04;}
	.st3{fill:#4285F4;}
	.st4{fill:#34A853;}
	.st5{display:none;}
	.st6{display:inline;}
	.st7{clip-path:url(#SVGID_00000119821540502896128380000010805901972342029700_);}
	.st8{opacity:0.4;}
	.st9{clip-path:url(#SVGID_00000003813150010539767160000008922730275652402816_);}
	.st10{fill:none;stroke:#000000;stroke-width:0.162;stroke-miterlimit:10;}
	
		.st11{clip-path:url(#SVGID_00000154421269470197278030000011018751458817707936_);fill:none;stroke:#000000;stroke-width:0.162;stroke-miterlimit:10;}
	
		.st12{clip-path:url(#SVGID_00000147192790095950467220000004974238892951153060_);fill:none;stroke:#000000;stroke-width:0.162;stroke-miterlimit:10;}
	
		.st13{clip-path:url(#SVGID_00000005229032245812266150000007511217075762812863_);fill:none;stroke:#000000;stroke-width:0.162;stroke-miterlimit:10;}
	
		.st14{clip-path:url(#SVGID_00000110451585542250323600000015373174691034468762_);fill:none;stroke:#000000;stroke-width:0.162;stroke-miterlimit:10;}
	.st15{display:none;fill:none;}
	.st16{display:inline;opacity:0.37;fill:none;stroke:#000000;stroke-width:0.162;stroke-miterlimit:10;enable-background:new    ;}
</style>
<g id="g1154" transform="matrix(51.940443,0,0,51.940443,-452.67029,-45.798049)">
	<path id="path1130" class="st0" d="M12.6,2.3H32v19.4H12.6V2.3z"/>
	<g id="Play_Parent_192_2_-9-8" transform="matrix(0.21006421,0,0,0.20795444,-0.21133506,0.03640973)">
		<g id="g90-6-7">
			<path id="path82-1-4" class="st1" d="M106.8,55.8L71,93.4c0,0,0,0,0,0c1.1,4.1,4.9,7.1,9.3,7.1c1.8,0,3.5-0.5,4.9-1.3l0.1-0.1
				l40.2-23L106.8,55.8z"/>
			<path id="path84-1-4" class="st2" d="M143,49.4L143,49.4l-17.4-10L106,56.6l19.6,19.5l17.3-9.9c3-1.6,5.1-4.8,5.1-8.4
				C148,54.1,146,51,143,49.4z"/>
			<path id="path86-4-2" class="st3" d="M71,22c-0.2,0.8-0.3,1.6-0.3,2.5v66.4c0,1,0.1,1.7,0.3,2.5l37-36.6L71,22z"/>
			<path id="path88-7-4" class="st4" d="M107.1,57.7l18.5-18.3L85.4,16.3c-1.5-0.9-3.2-1.4-5-1.4c-4.5,0-8.2,3-9.3,7.1c0,0,0,0,0,0
				L107.1,57.7z"/>
		</g>
		<g id="keylines_1_-1-8" class="st5">
			<g id="g101-6-6" class="st6">
				<g>
					<defs>
						<rect id="SVGID_1_" x="-402" y="-446.4" width="1018.4" height="1008.2"/>
					</defs>
					<clipPath id="SVGID_00000092424446486122900780000015415193063919920052_">
						<use xlink:href="#SVGID_1_"  style="overflow:visible;"/>
					</clipPath>
					<g id="g99-6-4" style="clip-path:url(#SVGID_00000092424446486122900780000015415193063919920052_);">
						<g id="material_x5F_product_x5F_standard_x5F_icon_x5F_keylines_1_-7-7" transform="matrix(1,0,0,-1,0,192)">
							<g id="g781-3-3" class="st8">
								<g id="g731-2-5">
									<g>
										<defs>
											
												<rect id="SVGID_00000156569936305908988040000000182450641787148191_" x="-448.7" y="-416.4" width="1018.4" height="1008.2"/>
										</defs>
										<clipPath id="SVGID_00000132808104823210509280000007878620081682761628_">
											<use xlink:href="#SVGID_00000156569936305908988040000000182450641787148191_"  style="overflow:visible;"/>
										</clipPath>
										<g id="g729-3-7" style="clip-path:url(#SVGID_00000132808104823210509280000007878620081682761628_);">
											<g id="g725-1-0">
												<path id="path723-9-7" d="M107.1,134.2V41.1H14v93.1H107.1 M107.2,134.3H13.8V41h93.3V134.3z"/>
											</g>
											<ellipse id="circle727-8-1" class="st10" cx="60.5" cy="87.6" rx="339.5" ry="336.1"/>
										</g>
									</g>
								</g>
								<g id="g743-1-5">
									<g>
										<defs>
											
												<rect id="SVGID_00000111153690437217874230000011449965330988853408_" x="-448.7" y="-416.4" width="1018.4" height="1008.2"/>
										</defs>
										<clipPath id="SVGID_00000151506796080144729640000013507886743950430117_">
											<use xlink:href="#SVGID_00000111153690437217874230000011449965330988853408_"  style="overflow:visible;"/>
										</clipPath>
										
											<ellipse id="circle741-8-5" style="clip-path:url(#SVGID_00000151506796080144729640000013507886743950430117_);fill:none;stroke:#000000;stroke-width:0.162;stroke-miterlimit:10;" cx="60.5" cy="87.6" rx="466.8" ry="462.1"/>
									</g>
								</g>
								<g id="g755-0-3">
									<g>
										<defs>
											
												<rect id="SVGID_00000082352259902971858000000018247712580819556022_" x="-448.7" y="-416.4" width="1018.4" height="1008.2"/>
										</defs>
										<clipPath id="SVGID_00000030486968672875246160000004565082705007152273_">
											<use xlink:href="#SVGID_00000082352259902971858000000018247712580819556022_"  style="overflow:visible;"/>
										</clipPath>
										
											<path id="path753-5-6" style="clip-path:url(#SVGID_00000030486968672875246160000004565082705007152273_);fill:none;stroke:#000000;stroke-width:0.162;stroke-miterlimit:10;" d="
											M91.6,124.6H29.4c-3.2,0-5.8-2.6-5.8-5.8V56.5c0-3.2,2.6-5.8,5.8-5.8h62.2c3.2,0,5.8,2.6,5.8,5.8v62.2
											C97.4,122,94.8,124.6,91.6,124.6z"/>
									</g>
								</g>
								<g id="g767-0-1">
									<g>
										<defs>
											
												<rect id="SVGID_00000056422834357648496300000001181447341986022576_" x="-448.7" y="-416.4" width="1018.4" height="1008.2"/>
										</defs>
										<clipPath id="SVGID_00000072260940892054884750000014282153738415553200_">
											<use xlink:href="#SVGID_00000056422834357648496300000001181447341986022576_"  style="overflow:visible;"/>
										</clipPath>
										
											<path id="path765-8-2" style="clip-path:url(#SVGID_00000072260940892054884750000014282153738415553200_);fill:none;stroke:#000000;stroke-width:0.162;stroke-miterlimit:10;" d="
											M85.8,130.4H35.2c-3.2,0-5.8-2.6-5.8-5.8V50.7c0-3.2,2.6-5.8,5.8-5.8h50.6c3.2,0,5.8,2.6,5.8,5.8v73.9
											C91.6,127.8,89,130.4,85.8,130.4z"/>
									</g>
								</g>
								<g id="g779-3-8">
									<g>
										<defs>
											
												<rect id="SVGID_00000025409087903099262810000015016936178373642370_" x="-448.7" y="-416.4" width="1018.4" height="1008.2"/>
										</defs>
										<clipPath id="SVGID_00000181782491473172436020000008689719429204084903_">
											<use xlink:href="#SVGID_00000025409087903099262810000015016936178373642370_"  style="overflow:visible;"/>
										</clipPath>
										
											<path id="path777-8-5" style="clip-path:url(#SVGID_00000181782491473172436020000008689719429204084903_);fill:none;stroke:#000000;stroke-width:0.162;stroke-miterlimit:10;" d="
											M97.4,118.7H23.6c-3.2,0-5.8-2.6-5.8-5.8V62.4c0-3.2,2.6-5.8,5.8-5.8h73.9c3.2,0,5.8,2.6,5.8,5.8v50.6
											C103.3,116.1,100.7,118.7,97.4,118.7z"/>
									</g>
								</g>
							</g>
						</g>
					</g>
				</g>
			</g>
		</g>
		<rect id="bounding_box_1_-6-1" x="60.5" y="11" class="st15" width="93.3" height="93.3"/>
		<g id="g109-7-3" class="st5">
			<line id="line105-1-1" class="st16" x1="60.5" y1="11" x2="153.8" y2="104.4"/>
			<line id="line107-0-9" class="st16" x1="60.5" y1="104.4" x2="153.8" y2="11"/>
		</g>
	</g>
</g>
</svg>
