<?xml version="1.0" encoding="utf-8"?>
<!-- Generator: Adobe Illustrator 26.0.3, SVG Export Plug-In . SVG Version: 6.00 Build 0)  -->
<svg version="1.0" id="katman_1" xmlns="http://www.w3.org/2000/svg" xmlns:xlink="http://www.w3.org/1999/xlink" x="0px" y="0px"
	 viewBox="0 0 104.8 83.4" style="enable-background:new 0 0 104.8 83.4;" xml:space="preserve">
<style type="text/css">
	.st0{fill:#FFFFFF;}
	.st1{fill:url(#SVGID_1_);}
	.st2{fill:url(#SVGID_00000114775775224871253000000010635943433383600551_);}
	.st3{fill:#1A73E8;}
	.st4{fill:url(#SVGID_00000091708290258758460310000015247217972703050891_);}
</style>
<path class="st0" d="M52.4,57.5c8.7,0,15.7-7.1,15.7-15.8S61.1,26,52.4,26S36.6,33,36.6,41.7S43.7,57.5,52.4,57.5z"/>
<linearGradient id="SVGID_1_" gradientUnits="userSpaceOnUse" x1="55.7976" y1="13.1933" x2="28.5212" y2="60.4376" gradientTransform="matrix(1 0 0 -1 0 84.4444)">
	<stop  offset="0" style="stop-color:#1E8E3E"/>
	<stop  offset="1" style="stop-color:#34A853"/>
</linearGradient>
<path class="st1" d="M38.7,49.6L25.1,26c-2.8,4.8-4.2,10.2-4.2,15.7s1.5,11,4.2,15.7c2.8,4.8,6.7,8.8,11.5,11.5
	c4.8,2.8,10.2,4.2,15.8,4.2L66,49.6v0c-1.4,2.4-3.4,4.4-5.8,5.8s-5.1,2.1-7.9,2.1s-5.5-0.7-7.9-2.1C42.1,54,40.1,52,38.7,49.6z"/>
<linearGradient id="SVGID_00000024714248698542896270000001947210056544583326_" gradientUnits="userSpaceOnUse" x1="47.7932" y1="11.1434" x2="75.0697" y2="58.3878" gradientTransform="matrix(1 0 0 -1 0 84.4444)">
	<stop  offset="0" style="stop-color:#FCC934"/>
	<stop  offset="1" style="stop-color:#FBBC04"/>
</linearGradient>
<path style="fill:url(#SVGID_00000024714248698542896270000001947210056544583326_);" d="M66,49.6L52.4,73.2c5.5,0,11-1.5,15.7-4.2
	c4.8-2.8,8.8-6.7,11.5-11.5c2.8-4.8,4.2-10.2,4.2-15.7c0-5.5-1.5-11-4.2-15.7H52.4l0,0c2.8,0,5.5,0.7,7.9,2.1
	c2.4,1.4,4.4,3.4,5.8,5.8c1.4,2.4,2.1,5.1,2.1,7.9C68.1,44.5,67.4,47.2,66,49.6L66,49.6z"/>
<path class="st3" d="M52.4,54.2c6.9,0,12.5-5.6,12.5-12.5s-5.6-12.5-12.5-12.5s-12.5,5.6-12.5,12.5S45.5,54.2,52.4,54.2z"/>
<linearGradient id="SVGID_00000155139739540128879300000004415884326373992636_" gradientUnits="userSpaceOnUse" x1="25.1103" y1="54.5338" x2="79.6634" y2="54.5338" gradientTransform="matrix(1 0 0 -1 0 84.4444)">
	<stop  offset="0" style="stop-color:#D93025"/>
	<stop  offset="1" style="stop-color:#EA4335"/>
</linearGradient>
<path style="fill:url(#SVGID_00000155139739540128879300000004415884326373992636_);" d="M52.4,26h27.3c-2.8-4.8-6.7-8.8-11.5-11.5
	c-4.8-2.8-10.2-4.2-15.7-4.2c-5.5,0-11,1.5-15.7,4.2c-4.8,2.8-8.8,6.7-11.5,11.5l13.6,23.6l0,0c-1.4-2.4-2.1-5.1-2.1-7.9
	s0.7-5.5,2.1-7.9c1.4-2.4,3.4-4.4,5.8-5.8C46.9,26.7,49.6,26,52.4,26z"/>
</svg>
